<?xml version="1.0" encoding="UTF-8" standalone="no"?>
<!DOCTYPE svg PUBLIC "-//W3C//DTD SVG 1.1//EN"
 "http://www.w3.org/Graphics/SVG/1.1/DTD/svg11.dtd">
<!-- Generated by graphviz version 2.40.1 (20161225.0304)
 -->
<!-- Title: schedule Pages: 1 -->
<svg width="619pt" height="422pt"
 viewBox="0.00 0.00 618.89 422.00" xmlns="http://www.w3.org/2000/svg" xmlns:xlink="http://www.w3.org/1999/xlink">
<g id="graph0" class="graph" transform="scale(1 1) rotate(0) translate(4 418)">
<title>schedule</title>
<polygon fill="#ffffff" stroke="transparent" points="-4,4 -4,-418 614.8867,-418 614.8867,4 -4,4"/>
<!-- N0_source -->
<g id="node1" class="node">
<title>N0_source</title>
<polygon fill="none" stroke="#000000" stroke-width=".5" points="64.5401,-219 -.1807,-219 -.1807,-183 64.5401,-183 64.5401,-219"/>
<text text-anchor="middle" x="32.1797" y="-198.7495" font-family="Arial" font-size="10.00" fill="#000000">N0_source</text>
</g>
<!-- N5_styx1_example1_i1 -->
<g id="node2" class="node">
<title>N5_styx1_example1_i1</title>
<polygon fill="none" stroke="#000000" stroke-width=".5" points="234.1865,-198 114.2861,-198 114.2861,-162 234.1865,-162 234.1865,-198"/>
<text text-anchor="middle" x="174.2363" y="-177.7495" font-family="Arial" font-size="10.00" fill="#000000">N5_styx1_example1_i1</text>
</g>
<!-- N0_source&#45;&gt;N5_styx1_example1_i1 -->
<g id="edge1" class="edge">
<title>N0_source&#45;&gt;N5_styx1_example1_i1</title>
<path fill="none" stroke="#c0c0c0" stroke-width=".5" d="M64.4145,-196.2348C77.6529,-194.2778 93.4849,-191.9374 108.9513,-189.651"/>
<polygon fill="#c0c0c0" stroke="#c0c0c0" stroke-width=".5" points="109.4878,-191.3408 114.1781,-188.8783 108.9759,-187.8784 109.4878,-191.3408"/>
<text text-anchor="middle" x="87.9199" y="-194.7992" font-family="Arial" font-size="8.00" fill="#000000">0/1</text>
</g>
<!-- N6_styx1_example1_i3 -->
<g id="node3" class="node">
<title>N6_styx1_example1_i3</title>
<polygon fill="none" stroke="#000000" stroke-width=".5" points="234.1865,-144 114.2861,-144 114.2861,-108 234.1865,-108 234.1865,-144"/>
<text text-anchor="middle" x="174.2363" y="-123.7495" font-family="Arial" font-size="10.00" fill="#000000">N6_styx1_example1_i3</text>
</g>
<!-- N0_source&#45;&gt;N6_styx1_example1_i3 -->
<g id="edge2" class="edge">
<title>N0_source&#45;&gt;N6_styx1_example1_i3</title>
<path fill="none" stroke="#0000ff" stroke-width=".5" d="M59.9004,-182.9291C74.8859,-173.4927 93.8801,-162.0581 111.4805,-153 115.9098,-150.7204 120.5749,-148.4621 125.2792,-146.2794"/>
<polygon fill="#0000ff" stroke="#0000ff" stroke-width=".5" points="126.171,-147.7959 129.9893,-144.1239 124.7146,-144.6133 126.171,-147.7959"/>
<text text-anchor="middle" x="87.9199" y="-171.7992" font-family="Arial" font-size="8.00" fill="#000000">1/1</text>
</g>
<!-- N7_styx1_example1_i2 -->
<g id="node4" class="node">
<title>N7_styx1_example1_i2</title>
<polygon fill="none" stroke="#000000" stroke-width=".5" points="234.1865,-90 114.2861,-90 114.2861,-54 234.1865,-54 234.1865,-90"/>
<text text-anchor="middle" x="174.2363" y="-69.7495" font-family="Arial" font-size="10.00" fill="#000000">N7_styx1_example1_i2</text>
</g>
<!-- N0_source&#45;&gt;N7_styx1_example1_i2 -->
<g id="edge3" class="edge">
<title>N0_source&#45;&gt;N7_styx1_example1_i2</title>
<path fill="none" stroke="#c0c0c0" stroke-width=".5" d="M42.3319,-182.8829C55.6524,-160.5301 80.9579,-122.5972 111.4805,-99 114.3835,-96.7557 117.5014,-94.6595 120.7398,-92.7084"/>
<polygon fill="#c0c0c0" stroke="#c0c0c0" stroke-width=".5" points="121.7553,-94.1433 125.2217,-90.1374 120.0138,-91.1074 121.7553,-94.1433"/>
<text text-anchor="middle" x="87.9199" y="-127.7992" font-family="Arial" font-size="8.00" fill="#000000">0/1</text>
</g>
<!-- N8_styx1_example1_i0 -->
<g id="node5" class="node">
<title>N8_styx1_example1_i0</title>
<polygon fill="none" stroke="#000000" stroke-width=".5" points="234.1865,-36 114.2861,-36 114.2861,0 234.1865,0 234.1865,-36"/>
<text text-anchor="middle" x="174.2363" y="-15.7495" font-family="Arial" font-size="10.00" fill="#000000">N8_styx1_example1_i0</text>
</g>
<!-- N0_source&#45;&gt;N8_styx1_example1_i0 -->
<g id="edge4" class="edge">
<title>N0_source&#45;&gt;N8_styx1_example1_i0</title>
<path fill="none" stroke="#0000ff" stroke-width=".5" d="M36.9384,-182.8478C46.1763,-150.905 69.4204,-84.3148 111.4805,-45 113.8118,-42.8208 116.3464,-40.8014 119.0156,-38.9323"/>
<polygon fill="#0000ff" stroke="#0000ff" stroke-width=".5" points="120.0882,-40.3218 123.3112,-36.1176 118.1699,-37.3943 120.0882,-40.3218"/>
<text text-anchor="middle" x="87.9199" y="-79.7992" font-family="Arial" font-size="8.00" fill="#000000">1/1</text>
</g>
<!-- N9_styx2_example2_i2 -->
<g id="node6" class="node">
<title>N9_styx2_example2_i2</title>
<polygon fill="none" stroke="#000000" stroke-width=".5" points="234.1865,-414 114.2861,-414 114.2861,-378 234.1865,-378 234.1865,-414"/>
<text text-anchor="middle" x="174.2363" y="-393.7495" font-family="Arial" font-size="10.00" fill="#000000">N9_styx2_example2_i2</text>
</g>
<!-- N0_source&#45;&gt;N9_styx2_example2_i2 -->
<g id="edge5" class="edge">
<title>N0_source&#45;&gt;N9_styx2_example2_i2</title>
<path fill="none" stroke="#c0c0c0" stroke-width=".5" d="M36.1753,-219.2289C44.4869,-253.1105 66.7067,-326.221 111.4805,-369 113.7879,-371.2046 116.3034,-373.244 118.958,-375.1286"/>
<polygon fill="#c0c0c0" stroke="#c0c0c0" stroke-width=".5" points="118.0997,-376.6593 123.2339,-377.9643 120.0341,-373.7424 118.0997,-376.6593"/>
<text text-anchor="middle" x="87.9199" y="-348.7992" font-family="Arial" font-size="8.00" fill="#000000">0/1</text>
</g>
<!-- N10_styx2_example2_i1 -->
<g id="node7" class="node">
<title>N10_styx2_example2_i1</title>
<polygon fill="none" stroke="#000000" stroke-width=".5" points="236.749,-360 111.7237,-360 111.7237,-324 236.749,-324 236.749,-360"/>
<text text-anchor="middle" x="174.2363" y="-339.7495" font-family="Arial" font-size="10.00" fill="#000000">N10_styx2_example2_i1</text>
</g>
<!-- N0_source&#45;&gt;N10_styx2_example2_i1 -->
<g id="edge6" class="edge">
<title>N0_source&#45;&gt;N10_styx2_example2_i1</title>
<path fill="none" stroke="#0000ff" stroke-width=".5" d="M40.7304,-219.1585C53.1694,-243.8472 78.4242,-288.0131 111.4805,-315 114.2598,-317.269 117.2585,-319.3788 120.3859,-321.3352"/>
<polygon fill="#0000ff" stroke="#0000ff" stroke-width=".5" points="119.529,-322.8616 124.7219,-323.9087 121.3154,-319.8518 119.529,-322.8616"/>
<text text-anchor="middle" x="87.9199" y="-298.7992" font-family="Arial" font-size="8.00" fill="#000000">1/1</text>
</g>
<!-- N11_styx2_example2_i0 -->
<g id="node8" class="node">
<title>N11_styx2_example2_i0</title>
<polygon fill="none" stroke="#000000" stroke-width=".5" points="236.5061,-306 111.9666,-306 111.9666,-270 236.5061,-270 236.5061,-306"/>
<text text-anchor="middle" x="174.2363" y="-285.7495" font-family="Arial" font-size="10.00" fill="#000000">N11_styx2_example2_i0</text>
</g>
<!-- N0_source&#45;&gt;N11_styx2_example2_i0 -->
<g id="edge7" class="edge">
<title>N0_source&#45;&gt;N11_styx2_example2_i0</title>
<path fill="none" stroke="#0000ff" stroke-width=".5" d="M53.0732,-219.0335C68.5211,-231.7988 90.4409,-248.7569 111.4805,-261 115.4705,-263.3218 119.6979,-265.5618 123.9983,-267.691"/>
<polygon fill="#0000ff" stroke="#0000ff" stroke-width=".5" points="123.4222,-269.3563 128.6855,-269.9567 124.9454,-266.2051 123.4222,-269.3563"/>
<text text-anchor="middle" x="87.9199" y="-251.7992" font-family="Arial" font-size="8.00" fill="#000000">1/1</text>
</g>
<!-- N12_styx2_example2_i3 -->
<g id="node9" class="node">
<title>N12_styx2_example2_i3</title>
<polygon fill="none" stroke="#000000" stroke-width=".5" points="236.749,-252 111.7237,-252 111.7237,-216 236.749,-216 236.749,-252"/>
<text text-anchor="middle" x="174.2363" y="-231.7495" font-family="Arial" font-size="10.00" fill="#000000">N12_styx2_example2_i3</text>
</g>
<!-- N0_source&#45;&gt;N12_styx2_example2_i3 -->
<g id="edge8" class="edge">
<title>N0_source&#45;&gt;N12_styx2_example2_i3</title>
<path fill="none" stroke="#c0c0c0" stroke-width=".5" d="M64.4145,-208.4882C76.991,-211.4097 91.9082,-214.875 106.629,-218.2947"/>
<polygon fill="#c0c0c0" stroke="#c0c0c0" stroke-width=".5" points="106.3437,-220.025 111.61,-219.4518 107.1357,-216.6157 106.3437,-220.025"/>
<text text-anchor="middle" x="87.9199" y="-216.7992" font-family="Arial" font-size="8.00" fill="#000000">0/1</text>
</g>
<!-- N2_common_lim_4 -->
<g id="node12" class="node">
<title>N2_common_lim_4</title>
<polygon fill="none" stroke="#000000" stroke-width=".5" points="386.3346,-186 284.0394,-186 284.0394,-150 386.3346,-150 386.3346,-186"/>
<text text-anchor="middle" x="335.187" y="-165.7495" font-family="Arial" font-size="10.00" fill="#000000">N2_common_lim_4</text>
</g>
<!-- N5_styx1_example1_i1&#45;&gt;N2_common_lim_4 -->
<g id="edge15" class="edge">
<title>N5_styx1_example1_i1&#45;&gt;N2_common_lim_4</title>
<path fill="none" stroke="#c0c0c0" stroke-width=".5" d="M234.6263,-175.4975C249.0851,-174.4195 264.468,-173.2726 278.7406,-172.2085"/>
<polygon fill="#c0c0c0" stroke="#c0c0c0" stroke-width=".5" points="279.089,-173.9375 283.945,-171.8205 278.8287,-170.4471 279.089,-173.9375"/>
<text text-anchor="middle" x="260.5527" y="-175.7992" font-family="Arial" font-size="8.00" fill="#000000">0/1</text>
</g>
<!-- N6_styx1_example1_i3&#45;&gt;N2_common_lim_4 -->
<g id="edge16" class="edge">
<title>N6_styx1_example1_i3&#45;&gt;N2_common_lim_4</title>
<path fill="none" stroke="#0000ff" stroke-width=".5" d="M234.6263,-141.7587C249.0851,-145.5318 264.468,-149.5459 278.7406,-153.2703"/>
<polygon fill="#0000ff" stroke="#0000ff" stroke-width=".5" points="278.6651,-155.0592 283.945,-154.6284 279.5489,-151.6726 278.6651,-155.0592"/>
<text text-anchor="middle" x="260.5527" y="-151.7992" font-family="Arial" font-size="8.00" fill="#000000">1/1</text>
</g>
<!-- N7_styx1_example1_i2&#45;&gt;N2_common_lim_4 -->
<g id="edge17" class="edge">
<title>N7_styx1_example1_i2&#45;&gt;N2_common_lim_4</title>
<path fill="none" stroke="#c0c0c0" stroke-width=".5" d="M219.349,-90.0687C225.3757,-92.8696 231.4006,-95.8766 236.9922,-99 262.1899,-113.0751 288.8694,-132.1209 308.0493,-146.6369"/>
<polygon fill="#c0c0c0" stroke="#c0c0c0" stroke-width=".5" points="307.23,-148.2126 312.2685,-149.8486 309.35,-145.4276 307.23,-148.2126"/>
<text text-anchor="middle" x="260.5527" y="-118.7992" font-family="Arial" font-size="8.00" fill="#000000">0/1</text>
</g>
<!-- N8_styx1_example1_i0&#45;&gt;N2_common_lim_4 -->
<g id="edge18" class="edge">
<title>N8_styx1_example1_i0&#45;&gt;N2_common_lim_4</title>
<path fill="none" stroke="#0000ff" stroke-width=".5" d="M222.8848,-36.0176C227.8493,-38.6991 232.6544,-41.6908 236.9922,-45 273.958,-73.2001 305.165,-118.2527 321.9374,-145.2964"/>
<polygon fill="#0000ff" stroke="#0000ff" stroke-width=".5" points="320.5955,-146.4556 324.7018,-149.8024 323.5788,-144.6254 320.5955,-146.4556"/>
<text text-anchor="middle" x="260.5527" y="-72.7992" font-family="Arial" font-size="8.00" fill="#000000">1/1</text>
</g>
<!-- N4_common_lim_4 -->
<g id="node13" class="node">
<title>N4_common_lim_4</title>
<polygon fill="none" stroke="#000000" stroke-width=".5" points="386.3346,-258 284.0394,-258 284.0394,-222 386.3346,-222 386.3346,-258"/>
<text text-anchor="middle" x="335.187" y="-237.7495" font-family="Arial" font-size="10.00" fill="#000000">N4_common_lim_4</text>
</g>
<!-- N9_styx2_example2_i2&#45;&gt;N4_common_lim_4 -->
<g id="edge19" class="edge">
<title>N9_styx2_example2_i2&#45;&gt;N4_common_lim_4</title>
<path fill="none" stroke="#c0c0c0" stroke-width=".5" d="M223.2851,-377.9064C228.12,-375.2511 232.7864,-372.286 236.9922,-369 275.3085,-339.0635 306.6286,-290.7845 322.9457,-262.5525"/>
<polygon fill="#c0c0c0" stroke="#c0c0c0" stroke-width=".5" points="324.472,-263.4087 325.4345,-258.1994 321.4335,-261.6715 324.472,-263.4087"/>
<text text-anchor="middle" x="260.5527" y="-353.7992" font-family="Arial" font-size="8.00" fill="#000000">0/1</text>
</g>
<!-- N10_styx2_example2_i1&#45;&gt;N4_common_lim_4 -->
<g id="edge20" class="edge">
<title>N10_styx2_example2_i1&#45;&gt;N4_common_lim_4</title>
<path fill="none" stroke="#0000ff" stroke-width=".5" d="M219.8008,-323.98C225.697,-321.191 231.5662,-318.174 236.9922,-315 263.5023,-299.4928 291.0732,-277.8726 310.2265,-261.8272"/>
<polygon fill="#0000ff" stroke="#0000ff" stroke-width=".5" points="311.7298,-262.8487 314.4237,-258.2874 309.4733,-260.1732 311.7298,-262.8487"/>
<text text-anchor="middle" x="260.5527" y="-304.7992" font-family="Arial" font-size="8.00" fill="#000000">1/1</text>
</g>
<!-- N11_styx2_example2_i0&#45;&gt;N4_common_lim_4 -->
<g id="edge21" class="edge">
<title>N11_styx2_example2_i0&#45;&gt;N4_common_lim_4</title>
<path fill="none" stroke="#0000ff" stroke-width=".5" d="M234.6263,-269.99C249.2119,-265.6402 264.7379,-261.0099 279.116,-256.722"/>
<polygon fill="#0000ff" stroke="#0000ff" stroke-width=".5" points="279.6537,-258.3878 283.945,-255.2818 278.6533,-255.0338 279.6537,-258.3878"/>
<text text-anchor="middle" x="260.5527" y="-264.7992" font-family="Arial" font-size="8.00" fill="#000000">1/1</text>
</g>
<!-- N12_styx2_example2_i3&#45;&gt;N4_common_lim_4 -->
<g id="edge22" class="edge">
<title>N12_styx2_example2_i3&#45;&gt;N4_common_lim_4</title>
<path fill="none" stroke="#c0c0c0" stroke-width=".5" d="M236.9249,-236.3369C250.7172,-236.8511 265.2432,-237.3926 278.7705,-237.8969"/>
<polygon fill="#c0c0c0" stroke="#c0c0c0" stroke-width=".5" points="279.0388,-239.658 284.1006,-238.0956 279.1692,-236.1604 279.0388,-239.658"/>
<text text-anchor="middle" x="260.5527" y="-239.7992" font-family="Arial" font-size="8.00" fill="#000000">0/1</text>
</g>
<!-- N1_r1_lim_3 -->
<g id="node10" class="node">
<title>N1_r1_lim_3</title>
<polygon fill="none" stroke="#000000" stroke-width=".5" points="505.924,-199 433.534,-199 433.534,-163 505.924,-163 505.924,-199"/>
<text text-anchor="middle" x="469.729" y="-178.7495" font-family="Arial" font-size="10.00" fill="#000000">N1_r1_lim_3</text>
</g>
<!-- N13_sink -->
<g id="node11" class="node">
<title>N13_sink</title>
<polygon fill="none" stroke="#000000" stroke-width=".5" points="610.7323,-226 553.3517,-226 553.3517,-190 610.7323,-190 610.7323,-226"/>
<text text-anchor="middle" x="582.042" y="-205.7495" font-family="Arial" font-size="10.00" fill="#000000">N13_sink</text>
</g>
<!-- N1_r1_lim_3&#45;&gt;N13_sink -->
<g id="edge9" class="edge">
<title>N1_r1_lim_3&#45;&gt;N13_sink</title>
<path fill="none" stroke="#0000ff" stroke-width=".5" d="M506.1938,-189.7661C519.6518,-193.0014 534.8373,-196.652 548.0662,-199.8322"/>
<polygon fill="#0000ff" stroke="#0000ff" stroke-width=".5" points="547.9517,-201.6045 553.2223,-201.0718 548.7699,-198.2015 547.9517,-201.6045"/>
<text text-anchor="middle" x="529.6367" y="-198.7992" font-family="Arial" font-size="8.00" fill="#000000">2/3</text>
</g>
<!-- N2_common_lim_4&#45;&gt;N1_r1_lim_3 -->
<g id="edge10" class="edge">
<title>N2_common_lim_4&#45;&gt;N1_r1_lim_3</title>
<path fill="none" stroke="#0000ff" stroke-width=".5" d="M386.4354,-172.9518C400.2026,-174.2821 414.9205,-175.7042 428.0956,-176.9772"/>
<polygon fill="#0000ff" stroke="#0000ff" stroke-width=".5" points="428.1097,-178.7366 433.2549,-177.4757 428.4464,-175.2529 428.1097,-178.7366"/>
<text text-anchor="middle" x="409.8213" y="-177.7992" font-family="Arial" font-size="8.00" fill="#000000">2/2</text>
</g>
<!-- N2_common_lim_4&#45;&gt;N4_common_lim_4 -->
<g id="edge11" class="edge">
<title>N2_common_lim_4&#45;&gt;N4_common_lim_4</title>
<path fill="none" stroke="#000000" stroke-width=".5" stroke-dasharray="1,5" d="M364.2129,-186.2813C375.4026,-196.9645 376.4724,-207.6477 367.4222,-218.3309"/>
<polygon fill="#000000" stroke="#000000" stroke-width=".5" points="366.1507,-217.1283 363.965,-221.9539 368.6829,-219.5446 366.1507,-217.1283"/>
</g>
<!-- N4_common_lim_4&#45;&gt;N2_common_lim_4 -->
<g id="edge14" class="edge">
<title>N4_common_lim_4&#45;&gt;N2_common_lim_4</title>
<path fill="none" stroke="#000000" stroke-width=".5" stroke-dasharray="1,5" d="M306.409,-221.9539C295.1694,-211.3636 293.8746,-200.7732 302.5244,-190.1829"/>
<polygon fill="#000000" stroke="#000000" stroke-width=".5" points="304.0321,-191.132 306.1611,-186.2813 301.4718,-188.7456 304.0321,-191.132"/>
</g>
<!-- N3_r2_lim_2 -->
<g id="node14" class="node">
<title>N3_r2_lim_2</title>
<polygon fill="none" stroke="#000000" stroke-width=".5" points="505.924,-255 433.534,-255 433.534,-219 505.924,-219 505.924,-255"/>
<text text-anchor="middle" x="469.729" y="-234.7495" font-family="Arial" font-size="10.00" fill="#000000">N3_r2_lim_2</text>
</g>
<!-- N4_common_lim_4&#45;&gt;N3_r2_lim_2 -->
<g id="edge13" class="edge">
<title>N4_common_lim_4&#45;&gt;N3_r2_lim_2</title>
<path fill="none" stroke="#0000ff" stroke-width=".5" d="M386.4354,-238.8573C400.2026,-238.5503 414.9205,-238.2221 428.0956,-237.9283"/>
<polygon fill="#0000ff" stroke="#0000ff" stroke-width=".5" points="428.2952,-239.6744 433.2549,-237.8133 428.2171,-236.1753 428.2952,-239.6744"/>
<text text-anchor="middle" x="409.8213" y="-240.7992" font-family="Arial" font-size="8.00" fill="#000000">2/2</text>
</g>
<!-- N3_r2_lim_2&#45;&gt;N13_sink -->
<g id="edge12" class="edge">
<title>N3_r2_lim_2&#45;&gt;N13_sink</title>
<path fill="none" stroke="#0000ff" stroke-width=".5" d="M506.1938,-227.5845C519.6518,-224.1096 534.8373,-220.1886 548.0662,-216.7728"/>
<polygon fill="#0000ff" stroke="#0000ff" stroke-width=".5" points="548.8186,-218.386 553.2223,-215.4414 547.9436,-214.9971 548.8186,-218.386"/>
<text text-anchor="middle" x="529.6367" y="-224.7992" font-family="Arial" font-size="8.00" fill="#000000">2/2</text>
</g>
</g>
</svg>
