<?xml version="1.0" encoding="UTF-8" standalone="no"?>
<!DOCTYPE svg PUBLIC "-//W3C//DTD SVG 1.1//EN"
 "http://www.w3.org/Graphics/SVG/1.1/DTD/svg11.dtd">
<!-- Generated by graphviz version 2.40.1 (20161225.0304)
 -->
<!-- Title: schedule Pages: 1 -->
<svg width="580pt" height="206pt"
 viewBox="0.00 0.00 580.18 206.00" xmlns="http://www.w3.org/2000/svg" xmlns:xlink="http://www.w3.org/1999/xlink">
<g id="graph0" class="graph" transform="scale(1 1) rotate(0) translate(4 202)">
<title>schedule</title>
<polygon fill="#ffffff" stroke="transparent" points="-4,4 -4,-202 576.1826,-202 576.1826,4 -4,4"/>
<!-- N0_source -->
<g id="node1" class="node">
<title>N0_source</title>
<polygon fill="none" stroke="#000000" stroke-width=".5" points="64.5401,-117 -.1807,-117 -.1807,-81 64.5401,-81 64.5401,-117"/>
<text text-anchor="middle" x="32.1797" y="-96.7495" font-family="Arial" font-size="10.00" fill="#000000">N0_source</text>
</g>
<!-- N3_styx1_example1_i3 -->
<g id="node2" class="node">
<title>N3_styx1_example1_i3</title>
<polygon fill="none" stroke="#000000" stroke-width=".5" points="231.4058,-198 111.5054,-198 111.5054,-162 231.4058,-162 231.4058,-198"/>
<text text-anchor="middle" x="171.4556" y="-177.7495" font-family="Arial" font-size="10.00" fill="#000000">N3_styx1_example1_i3</text>
</g>
<!-- N0_source&#45;&gt;N3_styx1_example1_i3 -->
<g id="edge1" class="edge">
<title>N0_source&#45;&gt;N3_styx1_example1_i3</title>
<path fill="none" stroke="#0000ff" stroke-width=".5" d="M56.4693,-117.1745C71.8123,-128.2374 92.2964,-142.2587 111.4805,-153 115.5047,-155.2532 119.7521,-157.4676 124.052,-159.5992"/>
<polygon fill="#0000ff" stroke="#0000ff" stroke-width=".5" points="123.4689,-161.2617 128.7304,-161.8777 125.0015,-158.115 123.4689,-161.2617"/>
<text text-anchor="middle" x="87.9199" y="-144.7992" font-family="Arial" font-size="8.00" fill="#000000">1/1</text>
</g>
<!-- N4_styx1_example1_i0 -->
<g id="node3" class="node">
<title>N4_styx1_example1_i0</title>
<polygon fill="none" stroke="#000000" stroke-width=".5" points="231.4058,-144 111.5054,-144 111.5054,-108 231.4058,-108 231.4058,-144"/>
<text text-anchor="middle" x="171.4556" y="-123.7495" font-family="Arial" font-size="10.00" fill="#000000">N4_styx1_example1_i0</text>
</g>
<!-- N0_source&#45;&gt;N4_styx1_example1_i0 -->
<g id="edge2" class="edge">
<title>N0_source&#45;&gt;N4_styx1_example1_i0</title>
<path fill="none" stroke="#c0c0c0" stroke-width=".5" d="M64.4824,-105.2622C77.0447,-107.6975 91.9084,-110.579 106.4969,-113.4071"/>
<polygon fill="#c0c0c0" stroke="#c0c0c0" stroke-width=".5" points="106.1884,-115.1298 111.4301,-114.3635 106.8545,-111.6938 106.1884,-115.1298"/>
<text text-anchor="middle" x="87.9199" y="-112.7992" font-family="Arial" font-size="8.00" fill="#000000">0/1</text>
</g>
<!-- N5_styx1_example1_i1 -->
<g id="node4" class="node">
<title>N5_styx1_example1_i1</title>
<polygon fill="none" stroke="#000000" stroke-width=".5" points="231.4058,-90 111.5054,-90 111.5054,-54 231.4058,-54 231.4058,-90"/>
<text text-anchor="middle" x="171.4556" y="-69.7495" font-family="Arial" font-size="10.00" fill="#000000">N5_styx1_example1_i1</text>
</g>
<!-- N0_source&#45;&gt;N5_styx1_example1_i1 -->
<g id="edge3" class="edge">
<title>N0_source&#45;&gt;N5_styx1_example1_i1</title>
<path fill="none" stroke="#0000ff" stroke-width=".5" d="M64.4824,-92.7378C77.0447,-90.3025 91.9084,-87.421 106.4969,-84.5929"/>
<polygon fill="#0000ff" stroke="#0000ff" stroke-width=".5" points="106.8545,-86.3062 111.4301,-83.6365 106.1884,-82.8702 106.8545,-86.3062"/>
<text text-anchor="middle" x="87.9199" y="-90.7992" font-family="Arial" font-size="8.00" fill="#000000">1/1</text>
</g>
<!-- N6_styx1_example1_i2 -->
<g id="node5" class="node">
<title>N6_styx1_example1_i2</title>
<polygon fill="none" stroke="#000000" stroke-width=".5" points="231.4058,-36 111.5054,-36 111.5054,0 231.4058,0 231.4058,-36"/>
<text text-anchor="middle" x="171.4556" y="-15.7495" font-family="Arial" font-size="10.00" fill="#000000">N6_styx1_example1_i2</text>
</g>
<!-- N0_source&#45;&gt;N6_styx1_example1_i2 -->
<g id="edge4" class="edge">
<title>N0_source&#45;&gt;N6_styx1_example1_i2</title>
<path fill="none" stroke="#c0c0c0" stroke-width=".5" d="M56.4693,-80.8255C71.8123,-69.7626 92.2964,-55.7413 111.4805,-45 115.5047,-42.7468 119.7521,-40.5324 124.052,-38.4008"/>
<polygon fill="#c0c0c0" stroke="#c0c0c0" stroke-width=".5" points="125.0015,-39.885 128.7304,-36.1223 123.4689,-36.7383 125.0015,-39.885"/>
<text text-anchor="middle" x="87.9199" y="-63.7992" font-family="Arial" font-size="8.00" fill="#000000">0/1</text>
</g>
<!-- N2_r1_lim_3 -->
<g id="node8" class="node">
<title>N2_r1_lim_3</title>
<polygon fill="none" stroke="#000000" stroke-width=".5" points="351.0939,-117 278.7039,-117 278.7039,-81 351.0939,-81 351.0939,-117"/>
<text text-anchor="middle" x="314.8989" y="-96.7495" font-family="Arial" font-size="10.00" fill="#000000">N2_r1_lim_3</text>
</g>
<!-- N3_styx1_example1_i3&#45;&gt;N2_r1_lim_3 -->
<g id="edge7" class="edge">
<title>N3_styx1_example1_i3&#45;&gt;N2_r1_lim_3</title>
<path fill="none" stroke="#0000ff" stroke-width=".5" d="M213.7934,-161.91C219.7858,-159.0701 225.8147,-156.058 231.4307,-153 249.7195,-143.0415 269.3101,-130.4748 284.9128,-119.9706"/>
<polygon fill="#0000ff" stroke="#0000ff" stroke-width=".5" points="286.0437,-121.3184 289.2034,-117.0664 284.0818,-118.4199 286.0437,-121.3184"/>
<text text-anchor="middle" x="254.9912" y="-144.7992" font-family="Arial" font-size="8.00" fill="#000000">1/1</text>
</g>
<!-- N4_styx1_example1_i0&#45;&gt;N2_r1_lim_3 -->
<g id="edge8" class="edge">
<title>N4_styx1_example1_i0&#45;&gt;N2_r1_lim_3</title>
<path fill="none" stroke="#c0c0c0" stroke-width=".5" d="M231.4573,-114.706C245.5546,-112.0525 260.2727,-109.2822 273.3531,-106.8201"/>
<polygon fill="#c0c0c0" stroke="#c0c0c0" stroke-width=".5" points="273.8803,-108.5017 278.4703,-105.8569 273.2328,-105.0621 273.8803,-108.5017"/>
<text text-anchor="middle" x="254.9912" y="-112.7992" font-family="Arial" font-size="8.00" fill="#000000">0/1</text>
</g>
<!-- N5_styx1_example1_i1&#45;&gt;N2_r1_lim_3 -->
<g id="edge9" class="edge">
<title>N5_styx1_example1_i1&#45;&gt;N2_r1_lim_3</title>
<path fill="none" stroke="#0000ff" stroke-width=".5" d="M231.4573,-83.294C245.5546,-85.9475 260.2727,-88.7178 273.3531,-91.1799"/>
<polygon fill="#0000ff" stroke="#0000ff" stroke-width=".5" points="273.2328,-92.9379 278.4703,-92.1431 273.8803,-89.4983 273.2328,-92.9379"/>
<text text-anchor="middle" x="254.9912" y="-90.7992" font-family="Arial" font-size="8.00" fill="#000000">1/1</text>
</g>
<!-- N6_styx1_example1_i2&#45;&gt;N2_r1_lim_3 -->
<g id="edge10" class="edge">
<title>N6_styx1_example1_i2&#45;&gt;N2_r1_lim_3</title>
<path fill="none" stroke="#c0c0c0" stroke-width=".5" d="M213.7934,-36.09C219.7858,-38.9299 225.8147,-41.942 231.4307,-45 249.7195,-54.9585 269.3101,-67.5252 284.9128,-78.0294"/>
<polygon fill="#c0c0c0" stroke="#c0c0c0" stroke-width=".5" points="284.0818,-79.5801 289.2034,-80.9336 286.0437,-76.6816 284.0818,-79.5801"/>
<text text-anchor="middle" x="254.9912" y="-63.7992" font-family="Arial" font-size="8.00" fill="#000000">0/1</text>
</g>
<!-- N1_r2_lim_2 -->
<g id="node6" class="node">
<title>N1_r2_lim_2</title>
<polygon fill="none" stroke="#000000" stroke-width=".5" points="470.9093,-117 398.5194,-117 398.5194,-81 470.9093,-81 470.9093,-117"/>
<text text-anchor="middle" x="434.7144" y="-96.7495" font-family="Arial" font-size="10.00" fill="#000000">N1_r2_lim_2</text>
</g>
<!-- N7_sink -->
<g id="node7" class="node">
<title>N7_sink</title>
<polygon fill="none" stroke="#000000" stroke-width=".5" points="572.1826,-117 518.1826,-117 518.1826,-81 572.1826,-81 572.1826,-117"/>
<text text-anchor="middle" x="545.1826" y="-96.7495" font-family="Arial" font-size="10.00" fill="#000000">N7_sink</text>
</g>
<!-- N1_r2_lim_2&#45;&gt;N7_sink -->
<g id="edge5" class="edge">
<title>N1_r2_lim_2&#45;&gt;N7_sink</title>
<path fill="none" stroke="#0000ff" stroke-width=".5" d="M471.192,-99C484.6183,-99 499.7226,-99 512.7668,-99"/>
<polygon fill="#0000ff" stroke="#0000ff" stroke-width=".5" points="512.8437,-100.7501 517.8437,-99 512.8437,-97.2501 512.8437,-100.7501"/>
<text text-anchor="middle" x="494.6221" y="-101.7992" font-family="Arial" font-size="8.00" fill="#000000">2/2</text>
</g>
<!-- N2_r1_lim_3&#45;&gt;N1_r2_lim_2 -->
<g id="edge6" class="edge">
<title>N2_r1_lim_3&#45;&gt;N1_r2_lim_2</title>
<path fill="none" stroke="#0000ff" stroke-width=".5" d="M351.1727,-99C364.3065,-99 379.2453,-99 392.8228,-99"/>
<polygon fill="#0000ff" stroke="#0000ff" stroke-width=".5" points="393.1504,-100.7501 398.1504,-99 393.1504,-97.2501 393.1504,-100.7501"/>
<text text-anchor="middle" x="374.8066" y="-101.7992" font-family="Arial" font-size="8.00" fill="#000000">2/3</text>
</g>
</g>
</svg>
