<?xml version="1.0" encoding="UTF-8" standalone="no"?>
<!DOCTYPE svg PUBLIC "-//W3C//DTD SVG 1.1//EN"
 "http://www.w3.org/Graphics/SVG/1.1/DTD/svg11.dtd">
<!-- Generated by graphviz version 2.40.1 (20161225.0304)
 -->
<!-- Title: schedule Pages: 1 -->
<svg width="469pt" height="422pt"
 viewBox="0.00 0.00 468.88 422.00" xmlns="http://www.w3.org/2000/svg" xmlns:xlink="http://www.w3.org/1999/xlink">
<g id="graph0" class="graph" transform="scale(1 1) rotate(0) translate(4 418)">
<title>schedule</title>
<polygon fill="#ffffff" stroke="transparent" points="-4,4 -4,-418 464.876,-418 464.876,4 -4,4"/>
<!-- N0_source -->
<g id="node1" class="node">
<title>N0_source</title>
<polygon fill="none" stroke="#000000" stroke-width=".5" points="64.5401,-219 -.1807,-219 -.1807,-183 64.5401,-183 64.5401,-219"/>
<text text-anchor="middle" x="32.1797" y="-198.7495" font-family="Arial" font-size="10.00" fill="#000000">N0_source</text>
</g>
<!-- N3_styx1_example1_i3 -->
<g id="node2" class="node">
<title>N3_styx1_example1_i3</title>
<polygon fill="none" stroke="#000000" stroke-width=".5" points="234.1865,-198 114.2861,-198 114.2861,-162 234.1865,-162 234.1865,-198"/>
<text text-anchor="middle" x="174.2363" y="-177.7495" font-family="Arial" font-size="10.00" fill="#000000">N3_styx1_example1_i3</text>
</g>
<!-- N0_source&#45;&gt;N3_styx1_example1_i3 -->
<g id="edge1" class="edge">
<title>N0_source&#45;&gt;N3_styx1_example1_i3</title>
<path fill="none" stroke="#0000ff" stroke-width=".5" d="M64.4145,-196.2348C77.6529,-194.2778 93.4849,-191.9374 108.9513,-189.651"/>
<polygon fill="#0000ff" stroke="#0000ff" stroke-width=".5" points="109.4878,-191.3408 114.1781,-188.8783 108.9759,-187.8784 109.4878,-191.3408"/>
<text text-anchor="middle" x="87.9199" y="-194.7992" font-family="Arial" font-size="8.00" fill="#000000">1/1</text>
</g>
<!-- N4_styx1_example1_i1 -->
<g id="node3" class="node">
<title>N4_styx1_example1_i1</title>
<polygon fill="none" stroke="#000000" stroke-width=".5" points="234.1865,-144 114.2861,-144 114.2861,-108 234.1865,-108 234.1865,-144"/>
<text text-anchor="middle" x="174.2363" y="-123.7495" font-family="Arial" font-size="10.00" fill="#000000">N4_styx1_example1_i1</text>
</g>
<!-- N0_source&#45;&gt;N4_styx1_example1_i1 -->
<g id="edge2" class="edge">
<title>N0_source&#45;&gt;N4_styx1_example1_i1</title>
<path fill="none" stroke="#c0c0c0" stroke-width=".5" d="M59.9004,-182.9291C74.8859,-173.4927 93.8801,-162.0581 111.4805,-153 115.9098,-150.7204 120.5749,-148.4621 125.2792,-146.2794"/>
<polygon fill="#c0c0c0" stroke="#c0c0c0" stroke-width=".5" points="126.171,-147.7959 129.9893,-144.1239 124.7146,-144.6133 126.171,-147.7959"/>
<text text-anchor="middle" x="87.9199" y="-171.7992" font-family="Arial" font-size="8.00" fill="#000000">0/1</text>
</g>
<!-- N5_styx1_example1_i0 -->
<g id="node4" class="node">
<title>N5_styx1_example1_i0</title>
<polygon fill="none" stroke="#000000" stroke-width=".5" points="234.1865,-90 114.2861,-90 114.2861,-54 234.1865,-54 234.1865,-90"/>
<text text-anchor="middle" x="174.2363" y="-69.7495" font-family="Arial" font-size="10.00" fill="#000000">N5_styx1_example1_i0</text>
</g>
<!-- N0_source&#45;&gt;N5_styx1_example1_i0 -->
<g id="edge3" class="edge">
<title>N0_source&#45;&gt;N5_styx1_example1_i0</title>
<path fill="none" stroke="#c0c0c0" stroke-width=".5" d="M42.3319,-182.8829C55.6524,-160.5301 80.9579,-122.5972 111.4805,-99 114.3835,-96.7557 117.5014,-94.6595 120.7398,-92.7084"/>
<polygon fill="#c0c0c0" stroke="#c0c0c0" stroke-width=".5" points="121.7553,-94.1433 125.2217,-90.1374 120.0138,-91.1074 121.7553,-94.1433"/>
<text text-anchor="middle" x="87.9199" y="-127.7992" font-family="Arial" font-size="8.00" fill="#000000">0/1</text>
</g>
<!-- N6_styx1_example1_i2 -->
<g id="node5" class="node">
<title>N6_styx1_example1_i2</title>
<polygon fill="none" stroke="#000000" stroke-width=".5" points="234.1865,-36 114.2861,-36 114.2861,0 234.1865,0 234.1865,-36"/>
<text text-anchor="middle" x="174.2363" y="-15.7495" font-family="Arial" font-size="10.00" fill="#000000">N6_styx1_example1_i2</text>
</g>
<!-- N0_source&#45;&gt;N6_styx1_example1_i2 -->
<g id="edge4" class="edge">
<title>N0_source&#45;&gt;N6_styx1_example1_i2</title>
<path fill="none" stroke="#c0c0c0" stroke-width=".5" d="M36.9384,-182.8478C46.1763,-150.905 69.4204,-84.3148 111.4805,-45 113.8118,-42.8208 116.3464,-40.8014 119.0156,-38.9323"/>
<polygon fill="#c0c0c0" stroke="#c0c0c0" stroke-width=".5" points="120.0882,-40.3218 123.3112,-36.1176 118.1699,-37.3943 120.0882,-40.3218"/>
<text text-anchor="middle" x="87.9199" y="-79.7992" font-family="Arial" font-size="8.00" fill="#000000">0/1</text>
</g>
<!-- N7_styx2_example2_i0 -->
<g id="node6" class="node">
<title>N7_styx2_example2_i0</title>
<polygon fill="none" stroke="#000000" stroke-width=".5" points="234.1865,-414 114.2861,-414 114.2861,-378 234.1865,-378 234.1865,-414"/>
<text text-anchor="middle" x="174.2363" y="-393.7495" font-family="Arial" font-size="10.00" fill="#000000">N7_styx2_example2_i0</text>
</g>
<!-- N0_source&#45;&gt;N7_styx2_example2_i0 -->
<g id="edge5" class="edge">
<title>N0_source&#45;&gt;N7_styx2_example2_i0</title>
<path fill="none" stroke="#c0c0c0" stroke-width=".5" d="M36.1753,-219.2289C44.4869,-253.1105 66.7067,-326.221 111.4805,-369 113.7879,-371.2046 116.3034,-373.244 118.958,-375.1286"/>
<polygon fill="#c0c0c0" stroke="#c0c0c0" stroke-width=".5" points="118.0997,-376.6593 123.2339,-377.9643 120.0341,-373.7424 118.0997,-376.6593"/>
<text text-anchor="middle" x="87.9199" y="-348.7992" font-family="Arial" font-size="8.00" fill="#000000">0/1</text>
</g>
<!-- N8_styx2_example2_i3 -->
<g id="node7" class="node">
<title>N8_styx2_example2_i3</title>
<polygon fill="none" stroke="#000000" stroke-width=".5" points="234.1865,-360 114.2861,-360 114.2861,-324 234.1865,-324 234.1865,-360"/>
<text text-anchor="middle" x="174.2363" y="-339.7495" font-family="Arial" font-size="10.00" fill="#000000">N8_styx2_example2_i3</text>
</g>
<!-- N0_source&#45;&gt;N8_styx2_example2_i3 -->
<g id="edge6" class="edge">
<title>N0_source&#45;&gt;N8_styx2_example2_i3</title>
<path fill="none" stroke="#c0c0c0" stroke-width=".5" d="M40.7304,-219.1585C53.1694,-243.8472 78.4242,-288.0131 111.4805,-315 114.2598,-317.269 117.2585,-319.3788 120.3859,-321.3352"/>
<polygon fill="#c0c0c0" stroke="#c0c0c0" stroke-width=".5" points="119.529,-322.8616 124.7219,-323.9087 121.3154,-319.8518 119.529,-322.8616"/>
<text text-anchor="middle" x="87.9199" y="-298.7992" font-family="Arial" font-size="8.00" fill="#000000">0/1</text>
</g>
<!-- N9_styx2_example2_i1 -->
<g id="node8" class="node">
<title>N9_styx2_example2_i1</title>
<polygon fill="none" stroke="#000000" stroke-width=".5" points="234.1865,-306 114.2861,-306 114.2861,-270 234.1865,-270 234.1865,-306"/>
<text text-anchor="middle" x="174.2363" y="-285.7495" font-family="Arial" font-size="10.00" fill="#000000">N9_styx2_example2_i1</text>
</g>
<!-- N0_source&#45;&gt;N9_styx2_example2_i1 -->
<g id="edge7" class="edge">
<title>N0_source&#45;&gt;N9_styx2_example2_i1</title>
<path fill="none" stroke="#0000ff" stroke-width=".5" d="M53.0732,-219.0335C68.5211,-231.7988 90.4409,-248.7569 111.4805,-261 115.4705,-263.3218 119.6979,-265.5618 123.9983,-267.691"/>
<polygon fill="#0000ff" stroke="#0000ff" stroke-width=".5" points="123.4222,-269.3563 128.6855,-269.9567 124.9454,-266.2051 123.4222,-269.3563"/>
<text text-anchor="middle" x="87.9199" y="-251.7992" font-family="Arial" font-size="8.00" fill="#000000">1/1</text>
</g>
<!-- N10_styx2_example2_i2 -->
<g id="node9" class="node">
<title>N10_styx2_example2_i2</title>
<polygon fill="none" stroke="#000000" stroke-width=".5" points="236.749,-252 111.7237,-252 111.7237,-216 236.749,-216 236.749,-252"/>
<text text-anchor="middle" x="174.2363" y="-231.7495" font-family="Arial" font-size="10.00" fill="#000000">N10_styx2_example2_i2</text>
</g>
<!-- N0_source&#45;&gt;N10_styx2_example2_i2 -->
<g id="edge8" class="edge">
<title>N0_source&#45;&gt;N10_styx2_example2_i2</title>
<path fill="none" stroke="#0000ff" stroke-width=".5" d="M64.4145,-208.4882C76.991,-211.4097 91.9082,-214.875 106.629,-218.2947"/>
<polygon fill="#0000ff" stroke="#0000ff" stroke-width=".5" points="106.3437,-220.025 111.61,-219.4518 107.1357,-216.6157 106.3437,-220.025"/>
<text text-anchor="middle" x="87.9199" y="-216.7992" font-family="Arial" font-size="8.00" fill="#000000">1/1</text>
</g>
<!-- N1_r1_lim_3 -->
<g id="node10" class="node">
<title>N1_r1_lim_3</title>
<polygon fill="none" stroke="#000000" stroke-width=".5" points="356.6554,-186 284.2655,-186 284.2655,-150 356.6554,-150 356.6554,-186"/>
<text text-anchor="middle" x="320.4604" y="-165.7495" font-family="Arial" font-size="10.00" fill="#000000">N1_r1_lim_3</text>
</g>
<!-- N3_styx1_example1_i3&#45;&gt;N1_r1_lim_3 -->
<g id="edge13" class="edge">
<title>N3_styx1_example1_i3&#45;&gt;N1_r1_lim_3</title>
<path fill="none" stroke="#0000ff" stroke-width=".5" d="M234.5555,-175.0499C249.5495,-173.8194 265.2845,-172.5281 279.1309,-171.3917"/>
<polygon fill="#0000ff" stroke="#0000ff" stroke-width=".5" points="279.3019,-173.1337 284.142,-170.9805 279.0156,-169.6454 279.3019,-173.1337"/>
<text text-anchor="middle" x="260.5527" y="-175.7992" font-family="Arial" font-size="8.00" fill="#000000">1/1</text>
</g>
<!-- N4_styx1_example1_i1&#45;&gt;N1_r1_lim_3 -->
<g id="edge14" class="edge">
<title>N4_styx1_example1_i1&#45;&gt;N1_r1_lim_3</title>
<path fill="none" stroke="#c0c0c0" stroke-width=".5" d="M234.5555,-143.3255C249.5495,-147.6322 265.2845,-152.1518 279.1309,-156.1289"/>
<polygon fill="#c0c0c0" stroke="#c0c0c0" stroke-width=".5" points="278.8531,-157.8698 284.142,-157.5682 279.8194,-154.5058 278.8531,-157.8698"/>
<text text-anchor="middle" x="260.5527" y="-153.7992" font-family="Arial" font-size="8.00" fill="#000000">0/1</text>
</g>
<!-- N5_styx1_example1_i0&#45;&gt;N1_r1_lim_3 -->
<g id="edge15" class="edge">
<title>N5_styx1_example1_i0&#45;&gt;N1_r1_lim_3</title>
<path fill="none" stroke="#c0c0c0" stroke-width=".5" d="M220.5832,-90.1443C226.2351,-92.8768 231.8307,-95.8458 236.9922,-99 259.1765,-112.5569 281.7485,-131.6004 297.8165,-146.2476"/>
<polygon fill="#c0c0c0" stroke="#c0c0c0" stroke-width=".5" points="296.8921,-147.7749 301.7573,-149.8708 299.2609,-145.1984 296.8921,-147.7749"/>
<text text-anchor="middle" x="260.5527" y="-119.7992" font-family="Arial" font-size="8.00" fill="#000000">0/1</text>
</g>
<!-- N6_styx1_example1_i2&#45;&gt;N1_r1_lim_3 -->
<g id="edge16" class="edge">
<title>N6_styx1_example1_i2&#45;&gt;N1_r1_lim_3</title>
<path fill="none" stroke="#c0c0c0" stroke-width=".5" d="M223.7901,-36.0433C228.4745,-38.6976 232.9687,-41.6763 236.9922,-45 270.8468,-72.9663 296.5724,-118.0959 310.0186,-145.2176"/>
<polygon fill="#c0c0c0" stroke="#c0c0c0" stroke-width=".5" points="308.4598,-146.0138 312.2281,-149.7371 311.6042,-144.4765 308.4598,-146.0138"/>
<text text-anchor="middle" x="260.5527" y="-75.7992" font-family="Arial" font-size="8.00" fill="#000000">0/1</text>
</g>
<!-- N2_r1_lim_3 -->
<g id="node12" class="node">
<title>N2_r1_lim_3</title>
<polygon fill="none" stroke="#000000" stroke-width=".5" points="356.6554,-258 284.2655,-258 284.2655,-222 356.6554,-222 356.6554,-258"/>
<text text-anchor="middle" x="320.4604" y="-237.7495" font-family="Arial" font-size="10.00" fill="#000000">N2_r1_lim_3</text>
</g>
<!-- N7_styx2_example2_i0&#45;&gt;N2_r1_lim_3 -->
<g id="edge17" class="edge">
<title>N7_styx2_example2_i0&#45;&gt;N2_r1_lim_3</title>
<path fill="none" stroke="#c0c0c0" stroke-width=".5" d="M224.1836,-377.8643C228.7382,-375.2383 233.096,-372.291 236.9922,-369 272.0522,-339.3853 297.6869,-291.3118 310.7298,-262.9661"/>
<polygon fill="#c0c0c0" stroke="#c0c0c0" stroke-width=".5" points="312.3961,-263.5286 312.8664,-258.252 309.2083,-262.0837 312.3961,-263.5286"/>
<text text-anchor="middle" x="260.5527" y="-350.7992" font-family="Arial" font-size="8.00" fill="#000000">0/1</text>
</g>
<!-- N8_styx2_example2_i3&#45;&gt;N2_r1_lim_3 -->
<g id="edge18" class="edge">
<title>N8_styx2_example2_i3&#45;&gt;N2_r1_lim_3</title>
<path fill="none" stroke="#c0c0c0" stroke-width=".5" d="M221.0415,-323.896C226.5587,-321.1735 231.9967,-318.196 236.9922,-315 260.6399,-299.8707 284.1123,-278.01 300.1139,-261.7897"/>
<polygon fill="#c0c0c0" stroke="#c0c0c0" stroke-width=".5" points="301.3684,-263.0099 303.6132,-258.2116 298.8661,-260.5627 301.3684,-263.0099"/>
<text text-anchor="middle" x="260.5527" y="-302.7992" font-family="Arial" font-size="8.00" fill="#000000">0/1</text>
</g>
<!-- N9_styx2_example2_i1&#45;&gt;N2_r1_lim_3 -->
<g id="edge19" class="edge">
<title>N9_styx2_example2_i1&#45;&gt;N2_r1_lim_3</title>
<path fill="none" stroke="#0000ff" stroke-width=".5" d="M229.1008,-269.99C245.5554,-264.5886 263.3274,-258.7547 278.784,-253.6809"/>
<polygon fill="#0000ff" stroke="#0000ff" stroke-width=".5" points="279.727,-255.2132 283.9318,-251.991 278.6353,-251.8878 279.727,-255.2132"/>
<text text-anchor="middle" x="260.5527" y="-263.7992" font-family="Arial" font-size="8.00" fill="#000000">1/1</text>
</g>
<!-- N10_styx2_example2_i2&#45;&gt;N2_r1_lim_3 -->
<g id="edge20" class="edge">
<title>N10_styx2_example2_i2&#45;&gt;N2_r1_lim_3</title>
<path fill="none" stroke="#0000ff" stroke-width=".5" d="M237.0971,-236.5794C251.3108,-237.1626 266.0517,-237.7675 279.1136,-238.3034"/>
<polygon fill="#0000ff" stroke="#0000ff" stroke-width=".5" points="279.1537,-240.0564 284.2213,-238.513 279.2972,-236.5594 279.1537,-240.0564"/>
<text text-anchor="middle" x="260.5527" y="-239.7992" font-family="Arial" font-size="8.00" fill="#000000">1/1</text>
</g>
<!-- N11_sink -->
<g id="node11" class="node">
<title>N11_sink</title>
<polygon fill="none" stroke="#000000" stroke-width=".5" points="460.8496,-222 403.9551,-222 403.9551,-186 460.8496,-186 460.8496,-222"/>
<text text-anchor="middle" x="432.4023" y="-201.7495" font-family="Arial" font-size="10.00" fill="#000000">N11_sink</text>
</g>
<!-- N1_r1_lim_3&#45;&gt;N11_sink -->
<g id="edge9" class="edge">
<title>N1_r1_lim_3&#45;&gt;N11_sink</title>
<path fill="none" stroke="#0000ff" stroke-width=".5" d="M356.8048,-179.6882C370.337,-184.0401 385.6217,-188.9555 398.8884,-193.2221"/>
<polygon fill="#0000ff" stroke="#0000ff" stroke-width=".5" points="398.3822,-194.8975 403.6779,-194.7623 399.4538,-191.5655 398.3822,-194.8975"/>
<text text-anchor="middle" x="380.3682" y="-190.7992" font-family="Arial" font-size="8.00" fill="#000000">1/1</text>
</g>
<!-- N1_r1_lim_3&#45;&gt;N2_r1_lim_3 -->
<g id="edge10" class="edge">
<title>N1_r1_lim_3&#45;&gt;N2_r1_lim_3</title>
<path fill="none" stroke="#000000" stroke-width=".5" stroke-dasharray="1,5" d="M341.117,-186.2813C348.9418,-196.7787 349.813,-207.2761 343.7304,-217.7735"/>
<polygon fill="#000000" stroke="#000000" stroke-width=".5" points="342.2605,-216.8235 340.9406,-221.9539 345.1718,-218.7664 342.2605,-216.8235"/>
</g>
<!-- N2_r1_lim_3&#45;&gt;N1_r1_lim_3 -->
<g id="edge12" class="edge">
<title>N2_r1_lim_3&#45;&gt;N1_r1_lim_3</title>
<path fill="none" stroke="#000000" stroke-width=".5" stroke-dasharray="1,5" d="M299.9803,-221.9539C292.0517,-211.4564 291.0767,-200.959 297.0554,-190.4616"/>
<polygon fill="#000000" stroke="#000000" stroke-width=".5" points="298.5192,-191.4206 299.8039,-186.2813 295.5947,-189.4978 298.5192,-191.4206"/>
</g>
<!-- N2_r1_lim_3&#45;&gt;N11_sink -->
<g id="edge11" class="edge">
<title>N2_r1_lim_3&#45;&gt;N11_sink</title>
<path fill="none" stroke="#0000ff" stroke-width=".5" d="M356.8048,-228.3118C370.337,-223.9599 385.6217,-219.0445 398.8884,-214.7779"/>
<polygon fill="#0000ff" stroke="#0000ff" stroke-width=".5" points="399.4538,-216.4345 403.6779,-213.2377 398.3822,-213.1025 399.4538,-216.4345"/>
<text text-anchor="middle" x="380.3682" y="-224.7992" font-family="Arial" font-size="8.00" fill="#000000">2/2</text>
</g>
</g>
</svg>
