<?xml version="1.0" encoding="UTF-8" standalone="no"?>
<!DOCTYPE svg PUBLIC "-//W3C//DTD SVG 1.1//EN"
 "http://www.w3.org/Graphics/SVG/1.1/DTD/svg11.dtd">
<!-- Generated by graphviz version 2.40.1 (20161225.0304)
 -->
<!-- Title: schedule Pages: 1 -->
<svg width="610pt" height="206pt"
 viewBox="0.00 0.00 609.64 206.00" xmlns="http://www.w3.org/2000/svg" xmlns:xlink="http://www.w3.org/1999/xlink">
<g id="graph0" class="graph" transform="scale(1 1) rotate(0) translate(4 202)">
<title>schedule</title>
<polygon fill="#ffffff" stroke="transparent" points="-4,4 -4,-202 605.6357,-202 605.6357,4 -4,4"/>
<!-- N0_source -->
<g id="node1" class="node">
<title>N0_source</title>
<polygon fill="none" stroke="#000000" stroke-width=".5" points="64.5401,-111 -.1807,-111 -.1807,-75 64.5401,-75 64.5401,-111"/>
<text text-anchor="middle" x="32.1797" y="-90.7495" font-family="Arial" font-size="10.00" fill="#000000">N0_source</text>
</g>
<!-- N5_styx1_example1_i0 -->
<g id="node2" class="node">
<title>N5_styx1_example1_i0</title>
<polygon fill="none" stroke="#000000" stroke-width=".5" points="231.4058,-90 111.5054,-90 111.5054,-54 231.4058,-54 231.4058,-90"/>
<text text-anchor="middle" x="171.4556" y="-69.7495" font-family="Arial" font-size="10.00" fill="#000000">N5_styx1_example1_i0</text>
</g>
<!-- N0_source&#45;&gt;N5_styx1_example1_i0 -->
<g id="edge1" class="edge">
<title>N0_source&#45;&gt;N5_styx1_example1_i0</title>
<path fill="none" stroke="#c0c0c0" stroke-width=".5" d="M64.4824,-88.1294C76.9355,-86.2517 91.6501,-84.0331 106.1163,-81.8518"/>
<polygon fill="#c0c0c0" stroke="#c0c0c0" stroke-width=".5" points="106.7469,-83.5266 111.4301,-81.0506 106.225,-80.0657 106.7469,-83.5266"/>
<text text-anchor="middle" x="87.9199" y="-86.7992" font-family="Arial" font-size="8.00" fill="#000000">0/1</text>
</g>
<!-- N6_styx1_example1_i2 -->
<g id="node3" class="node">
<title>N6_styx1_example1_i2</title>
<polygon fill="none" stroke="#000000" stroke-width=".5" points="231.4058,-36 111.5054,-36 111.5054,0 231.4058,0 231.4058,-36"/>
<text text-anchor="middle" x="171.4556" y="-15.7495" font-family="Arial" font-size="10.00" fill="#000000">N6_styx1_example1_i2</text>
</g>
<!-- N0_source&#45;&gt;N6_styx1_example1_i2 -->
<g id="edge2" class="edge">
<title>N0_source&#45;&gt;N6_styx1_example1_i2</title>
<path fill="none" stroke="#c0c0c0" stroke-width=".5" d="M60.3289,-74.8182C75.2739,-65.4593 94.0988,-54.13 111.4805,-45 115.8021,-42.73 120.3529,-40.4652 124.9357,-38.2672"/>
<polygon fill="#c0c0c0" stroke="#c0c0c0" stroke-width=".5" points="125.7532,-39.8164 129.522,-36.0937 124.2542,-36.6536 125.7532,-39.8164"/>
<text text-anchor="middle" x="87.9199" y="-64.7992" font-family="Arial" font-size="8.00" fill="#000000">0/1</text>
</g>
<!-- N7_styx2_example2_i2 -->
<g id="node4" class="node">
<title>N7_styx2_example2_i2</title>
<polygon fill="none" stroke="#000000" stroke-width=".5" points="231.4058,-198 111.5054,-198 111.5054,-162 231.4058,-162 231.4058,-198"/>
<text text-anchor="middle" x="171.4556" y="-177.7495" font-family="Arial" font-size="10.00" fill="#000000">N7_styx2_example2_i2</text>
</g>
<!-- N0_source&#45;&gt;N7_styx2_example2_i2 -->
<g id="edge3" class="edge">
<title>N0_source&#45;&gt;N7_styx2_example2_i2</title>
<path fill="none" stroke="#c0c0c0" stroke-width=".5" d="M53.4658,-111.1985C68.9246,-123.8813 90.6924,-140.6697 111.4805,-153 115.3752,-155.3101 119.5024,-157.5524 123.6967,-159.6925"/>
<polygon fill="#c0c0c0" stroke="#c0c0c0" stroke-width=".5" points="123.0111,-161.3061 128.2664,-161.973 124.574,-158.1744 123.0111,-161.3061"/>
<text text-anchor="middle" x="87.9199" y="-143.7992" font-family="Arial" font-size="8.00" fill="#000000">0/1</text>
</g>
<!-- N8_styx2_example2_i1 -->
<g id="node5" class="node">
<title>N8_styx2_example2_i1</title>
<polygon fill="none" stroke="#000000" stroke-width=".5" points="231.4058,-144 111.5054,-144 111.5054,-108 231.4058,-108 231.4058,-144"/>
<text text-anchor="middle" x="171.4556" y="-123.7495" font-family="Arial" font-size="10.00" fill="#000000">N8_styx2_example2_i1</text>
</g>
<!-- N0_source&#45;&gt;N8_styx2_example2_i1 -->
<g id="edge4" class="edge">
<title>N0_source&#45;&gt;N8_styx2_example2_i1</title>
<path fill="none" stroke="#c0c0c0" stroke-width=".5" d="M64.4824,-100.6538C77.0447,-103.6303 91.9084,-107.1521 106.4969,-110.6087"/>
<polygon fill="#c0c0c0" stroke="#c0c0c0" stroke-width=".5" points="106.1613,-112.3276 111.4301,-111.7776 106.9683,-108.9219 106.1613,-112.3276"/>
<text text-anchor="middle" x="87.9199" y="-109.7992" font-family="Arial" font-size="8.00" fill="#000000">0/1</text>
</g>
<!-- N2_common_lim_4 -->
<g id="node8" class="node">
<title>N2_common_lim_4</title>
<polygon fill="none" stroke="#000000" stroke-width=".5" points="380.7731,-78 278.4779,-78 278.4779,-42 380.7731,-42 380.7731,-78"/>
<text text-anchor="middle" x="329.6255" y="-57.7495" font-family="Arial" font-size="10.00" fill="#000000">N2_common_lim_4</text>
</g>
<!-- N5_styx1_example1_i0&#45;&gt;N2_common_lim_4 -->
<g id="edge11" class="edge">
<title>N5_styx1_example1_i0&#45;&gt;N2_common_lim_4</title>
<path fill="none" stroke="#c0c0c0" stroke-width=".5" d="M231.704,-67.4291C245.2686,-66.4 259.6182,-65.3113 273.0271,-64.294"/>
<polygon fill="#c0c0c0" stroke="#c0c0c0" stroke-width=".5" points="273.46,-66.0163 278.3132,-63.8929 273.1951,-62.5263 273.46,-66.0163"/>
<text text-anchor="middle" x="254.9912" y="-68.7992" font-family="Arial" font-size="8.00" fill="#000000">0/1</text>
</g>
<!-- N6_styx1_example1_i2&#45;&gt;N2_common_lim_4 -->
<g id="edge12" class="edge">
<title>N6_styx1_example1_i2&#45;&gt;N2_common_lim_4</title>
<path fill="none" stroke="#c0c0c0" stroke-width=".5" d="M231.704,-33.9982C245.3887,-37.632 259.8722,-41.4779 273.3829,-45.0655"/>
<polygon fill="#c0c0c0" stroke="#c0c0c0" stroke-width=".5" points="273.0315,-46.7828 278.3132,-46.3747 273.9298,-43.4 273.0315,-46.7828"/>
<text text-anchor="middle" x="254.9912" y="-44.7992" font-family="Arial" font-size="8.00" fill="#000000">0/1</text>
</g>
<!-- N4_common_lim_4 -->
<g id="node9" class="node">
<title>N4_common_lim_4</title>
<polygon fill="none" stroke="#000000" stroke-width=".5" points="380.7731,-150 278.4779,-150 278.4779,-114 380.7731,-114 380.7731,-150"/>
<text text-anchor="middle" x="329.6255" y="-129.7495" font-family="Arial" font-size="10.00" fill="#000000">N4_common_lim_4</text>
</g>
<!-- N7_styx2_example2_i2&#45;&gt;N4_common_lim_4 -->
<g id="edge13" class="edge">
<title>N7_styx2_example2_i2&#45;&gt;N4_common_lim_4</title>
<path fill="none" stroke="#c0c0c0" stroke-width=".5" d="M230.8022,-161.99C244.777,-157.7491 259.6301,-153.2416 273.4599,-149.0446"/>
<polygon fill="#c0c0c0" stroke="#c0c0c0" stroke-width=".5" points="274.2288,-150.6402 278.5052,-147.5135 273.2124,-147.291 274.2288,-150.6402"/>
<text text-anchor="middle" x="254.9912" y="-158.7992" font-family="Arial" font-size="8.00" fill="#000000">0/1</text>
</g>
<!-- N8_styx2_example2_i1&#45;&gt;N4_common_lim_4 -->
<g id="edge14" class="edge">
<title>N8_styx2_example2_i1&#45;&gt;N4_common_lim_4</title>
<path fill="none" stroke="#c0c0c0" stroke-width=".5" d="M231.704,-128.2855C245.2686,-128.8 259.6182,-129.3444 273.0271,-129.853"/>
<polygon fill="#c0c0c0" stroke="#c0c0c0" stroke-width=".5" points="273.2504,-131.6126 278.3132,-130.0535 273.3832,-128.1152 273.2504,-131.6126"/>
<text text-anchor="middle" x="254.9912" y="-131.7992" font-family="Arial" font-size="8.00" fill="#000000">0/1</text>
</g>
<!-- N1_r1_lim_3 -->
<g id="node6" class="node">
<title>N1_r1_lim_3</title>
<polygon fill="none" stroke="#000000" stroke-width=".5" points="500.3625,-91 427.9725,-91 427.9725,-55 500.3625,-55 500.3625,-91"/>
<text text-anchor="middle" x="464.1675" y="-70.7495" font-family="Arial" font-size="10.00" fill="#000000">N1_r1_lim_3</text>
</g>
<!-- N9_sink -->
<g id="node7" class="node">
<title>N9_sink</title>
<polygon fill="none" stroke="#000000" stroke-width=".5" points="601.6357,-118 547.6357,-118 547.6357,-82 601.6357,-82 601.6357,-118"/>
<text text-anchor="middle" x="574.6357" y="-97.7495" font-family="Arial" font-size="10.00" fill="#000000">N9_sink</text>
</g>
<!-- N1_r1_lim_3&#45;&gt;N9_sink -->
<g id="edge5" class="edge">
<title>N1_r1_lim_3&#45;&gt;N9_sink</title>
<path fill="none" stroke="#c0c0c0" stroke-width=".5" d="M500.6451,-81.9156C514.0715,-85.1972 529.1757,-88.8889 542.2199,-92.0771"/>
<polygon fill="#c0c0c0" stroke="#c0c0c0" stroke-width=".5" points="542.0243,-93.8307 547.2968,-93.318 542.8553,-90.4308 542.0243,-93.8307"/>
<text text-anchor="middle" x="524.0752" y="-90.7992" font-family="Arial" font-size="8.00" fill="#000000">0/1</text>
</g>
<!-- N2_common_lim_4&#45;&gt;N1_r1_lim_3 -->
<g id="edge6" class="edge">
<title>N2_common_lim_4&#45;&gt;N1_r1_lim_3</title>
<path fill="none" stroke="#c0c0c0" stroke-width=".5" d="M380.8739,-64.9518C394.6411,-66.2821 409.359,-67.7042 422.534,-68.9772"/>
<polygon fill="#c0c0c0" stroke="#c0c0c0" stroke-width=".5" points="422.5482,-70.7366 427.6933,-69.4757 422.8849,-67.2529 422.5482,-70.7366"/>
<text text-anchor="middle" x="404.2598" y="-70.7992" font-family="Arial" font-size="8.00" fill="#000000">0/0</text>
</g>
<!-- N2_common_lim_4&#45;&gt;N4_common_lim_4 -->
<g id="edge7" class="edge">
<title>N2_common_lim_4&#45;&gt;N4_common_lim_4</title>
<path fill="none" stroke="#000000" stroke-width=".5" stroke-dasharray="1,5" d="M358.6514,-78.2813C369.8411,-88.9645 370.9108,-99.6477 361.8607,-110.3309"/>
<polygon fill="#000000" stroke="#000000" stroke-width=".5" points="360.5892,-109.1283 358.4035,-113.9539 363.1214,-111.5446 360.5892,-109.1283"/>
</g>
<!-- N4_common_lim_4&#45;&gt;N2_common_lim_4 -->
<g id="edge10" class="edge">
<title>N4_common_lim_4&#45;&gt;N2_common_lim_4</title>
<path fill="none" stroke="#000000" stroke-width=".5" stroke-dasharray="1,5" d="M300.8475,-113.9539C289.6079,-103.3636 288.313,-92.7732 296.9629,-82.1829"/>
<polygon fill="#000000" stroke="#000000" stroke-width=".5" points="298.4706,-83.132 300.5996,-78.2813 295.9103,-80.7456 298.4706,-83.132"/>
</g>
<!-- N3_r2_lim_2 -->
<g id="node10" class="node">
<title>N3_r2_lim_2</title>
<polygon fill="none" stroke="#000000" stroke-width=".5" points="500.3625,-147 427.9725,-147 427.9725,-111 500.3625,-111 500.3625,-147"/>
<text text-anchor="middle" x="464.1675" y="-126.7495" font-family="Arial" font-size="10.00" fill="#000000">N3_r2_lim_2</text>
</g>
<!-- N4_common_lim_4&#45;&gt;N3_r2_lim_2 -->
<g id="edge9" class="edge">
<title>N4_common_lim_4&#45;&gt;N3_r2_lim_2</title>
<path fill="none" stroke="#c0c0c0" stroke-width=".5" d="M380.8739,-130.8573C394.6411,-130.5503 409.359,-130.2221 422.534,-129.9283"/>
<polygon fill="#c0c0c0" stroke="#c0c0c0" stroke-width=".5" points="422.7336,-131.6744 427.6933,-129.8133 422.6555,-128.1753 422.7336,-131.6744"/>
<text text-anchor="middle" x="404.2598" y="-132.7992" font-family="Arial" font-size="8.00" fill="#000000">0/0</text>
</g>
<!-- N3_r2_lim_2&#45;&gt;N9_sink -->
<g id="edge8" class="edge">
<title>N3_r2_lim_2&#45;&gt;N9_sink</title>
<path fill="none" stroke="#c0c0c0" stroke-width=".5" d="M500.6451,-119.4239C514.0715,-115.8993 529.1757,-111.9341 542.2199,-108.5098"/>
<polygon fill="#c0c0c0" stroke="#c0c0c0" stroke-width=".5" points="542.9051,-110.1393 547.2968,-107.177 542.0163,-106.754 542.9051,-110.1393"/>
<text text-anchor="middle" x="524.0752" y="-116.7992" font-family="Arial" font-size="8.00" fill="#000000">0/0</text>
</g>
</g>
</svg>
